<svg width="250" height="250" fill="none" xmlns="http://www.w3.org/2000/svg"><g style="transform-origin:center;transform-box:fill-box"><path d="M77.488 192.483c-19.271-14.695-26.247-29.486-28.41-46.51-1.091-8.578-.962-17.75-.514-27.843.127-2.875.28-5.827.439-8.859.394-7.571.813-15.638.917-24.24.28-23.025 19.696-38.908 44.498-45.34 24.762-6.422 54.155-3.174 73.284 11.412 19.441 14.825 36.188 34.283 44.787 54.255 8.587 19.947 8.99 40.212-3.85 57.05-13.038 17.099-36.255 31.997-61.096 38.899-24.848 6.903-50.98 5.721-70.055-8.824z" stroke="#99E2DB" stroke-width="3"/><animateTransform attributeName="transform" attributeType="XML" type="rotate" from="0 0 0" to="360 0 0" dur="50s" repeatCount="indefinite"/></g><g style="transform-origin:center;transform-box:fill-box"><path d="M133.4 206.617c-46.79 1.041-57.254-27.961-85.301-63.979C20.052 106.62 66.38 43.1 113.17 42.058c46.791-1.041 100.235 21.483 101.16 63.05.925 41.568-34.141 100.467-80.931 101.509z" fill="#FC9DA9"/><animateTransform attributeName="transform" attributeType="XML" type="rotate" from="0 0 0" to="-360 0 0" dur="50s" repeatCount="indefinite"/></g></svg>