<svg width="45" height="49" fill="none" xmlns="http://www.w3.org/2000/svg"><path d="M1.43 27.604a4.88 4.88 0 010-6.9L22.132 0l16.991 16.991a2.442 2.442 0 01-.41 2.91l-3.08 3.08-5.493-5.491v-5.97h-2.705v3.264L22.133 9.48l-.001.001h-.001L4.443 27.168a2.44 2.44 0 00-.053 3.396l-2.96-2.96z" fill="#FC9DA9"/><path d="M8.645 25.339L5.562 28.42a2.44 2.44 0 00-.41 2.906l16.98 16.98 20.704-20.703a4.88 4.88 0 000-6.9l-2.978-2.978a2.44 2.44 0 01-.023 3.426L22.145 38.84 8.646 25.34z" fill="#FC9DA9"/><path d="M17.74 19.762h3.417v3.416H17.74v-3.416zm5.369 0h3.416v3.416h-3.416v-3.416zM17.74 25.13h3.417v3.416H17.74V25.13zm5.369 0h3.416v3.416h-3.416V25.13z" fill="#FC9DA9"/></svg>