<svg width="302" height="294" viewBox="0 0 302 294" fill="none" xmlns="http://www.w3.org/2000/svg">
<path d="M140.154 281.116C219.023 282.872 236.66 233.986 283.936 173.275C331.211 112.565 253.119 5.49679 174.251 3.74115C95.3829 1.98551 5.29913 39.9516 3.73946 110.016C2.17979 180.081 61.2863 279.361 140.154 281.116Z" fill="#FC9DA9"/>
<path fill-rule="evenodd" clip-rule="evenodd" d="M156.468 284.789C116.711 284.09 93.1668 271.215 73.7892 250.65C64.01 240.271 55.2569 227.892 46.0116 213.94C43.3819 209.971 40.7102 205.871 37.9658 201.66L37.9633 201.656L37.962 201.654C31.0998 191.125 23.7825 179.897 15.5276 168.268C-6.42698 137.341 2.35008 95.9926 27.4489 61.9074C52.5117 27.8712 93.0347 2.32224 132.348 3.01373C172.093 3.71283 213.979 21.9718 245.786 49.1222C277.632 76.3058 298.875 111.952 298.254 147.1C297.969 163.234 294.609 179.195 288.66 194.218H291.877C297.691 179.183 300.97 163.252 301.254 147.153C302.539 74.4108 213.534 1.44127 132.401 0.0141963C51.2673 -1.41288 -33.0059 105.083 13.0813 170.005C21.3 181.582 28.5656 192.731 35.4166 203.244C66.9831 251.681 89.75 286.616 156.415 287.789C173.424 288.088 189.61 285.278 204.584 279.978C203.396 279.366 202.239 278.703 201.115 277.992C187.159 282.629 172.169 285.065 156.468 284.789Z" fill="#5E8D8C"/>
<mask id="mask0" mask-type="alpha" maskUnits="userSpaceOnUse" x="3" y="12" width="296" height="279">
<path d="M140.441 290.123C219.309 291.879 236.947 242.993 284.222 182.282C331.498 121.571 253.406 14.5035 174.538 12.7479C95.6695 10.9922 5.58576 48.9583 4.02608 119.023C2.46641 189.088 61.5729 288.367 140.441 290.123Z" fill="#FC9DA9"/>
</mask>
<g mask="url(#mask0)">
<g clip-path="url(#clip0)">
<path d="M-58.1708 135.71C-152.44 171.325 -254.237 186.972 -357.174 180.222L-359.051 180.099L-358.956 178.645L-357.079 178.769C-150.994 192.283 50.561 115.831 195.906 -30.9866L196.942 -29.9619C123.898 43.8217 36.6736 99.875 -58.1708 135.71V135.71Z" fill="#274646"/>
<path d="M-7.95996 112.092L21.1911 143.749L15.2784 101.111L-7.95996 112.092Z" fill="#6FABA7"/>
<path d="M71.6812 68.2606L104.404 96.2074L93.4426 54.5807L71.6812 68.2606Z" fill="white"/>
<path d="M143.121 16.697L180.006 38.8491L162.325 -0.393066L143.121 16.697Z" fill="white"/>
<path d="M19.9038 99.0517L50.8178 128.986L42.4769 86.7571L19.9038 99.0517Z" fill="white"/>
<path d="M96.2388 52.412L130.931 77.8676L116.931 37.1641L96.2388 52.412Z" fill="white"/>
<path d="M45.9673 84.0975L78.4675 112.3L67.8352 70.5888L45.9673 84.0975Z" fill="#C85664"/>
<path d="M120.188 34.9091L155.454 59.5612L140.527 19.1892L120.188 34.9091Z" fill="#C85664"/>
<path d="M434.693 135.71C528.961 171.325 630.759 186.972 733.696 180.222L735.573 180.099L735.479 178.645L733.601 178.769C527.516 192.283 325.96 115.831 180.615 -30.9866L179.58 -29.9619C252.624 43.8217 339.847 99.875 434.693 135.71V135.71Z" fill="#274646"/>
<path d="M304.841 68.2606L272.118 96.2074L283.078 54.5807L304.841 68.2606Z" fill="white"/>
<path d="M233.401 16.697L196.517 38.8491L214.197 -0.393066L233.401 16.697Z" fill="white"/>
<path d="M280.283 52.412L245.592 77.8676L259.59 37.1641L280.283 52.412Z" fill="white"/>
<path d="M330.554 84.0975L298.054 112.3L308.688 70.5888L330.554 84.0975Z" fill="#C85664"/>
<path d="M256.333 34.9091L221.068 59.5612L235.994 19.1892L256.333 34.9091Z" fill="#C85664"/>
<path d="M125.467 118.915L125.464 119.007L125.464 119.122L125.467 118.915Z" fill="#C85664"/>
<path d="M125.468 116.582C125.467 117.391 125.466 118.199 125.464 119.008L125.467 118.916L125.464 119.122L125.464 119.008C125.461 119.098 125.459 119.189 125.456 119.281L125.458 119.319C125.531 118.723 125.777 118.242 126.129 117.843C125.771 117.538 125.517 117.139 125.468 116.582H125.468Z" fill="#C85664"/>
<path d="M136.129 139.142L136.126 139.02L136.125 139.119L136.129 139.142Z" fill="#C85664"/>
<path d="M136.126 139.02L136.124 138.939L136.124 139.117L136.125 139.117L136.126 139.02Z" fill="#C85664"/>
<path d="M125.469 116.582C125.518 117.138 125.771 117.538 126.13 117.843C126.916 116.953 128.226 116.467 129.303 116.021C131.234 115.223 133.224 114.585 135.254 114.093C135.323 114.076 135.277 112.731 135.278 112.606C135.279 112.488 135.224 111.13 135.272 111.118C132.855 111.704 130.487 112.496 128.219 113.521C127.295 113.939 126.273 114.441 125.767 115.374C125.253 116.32 125.444 117.615 125.443 118.643C125.442 118.864 125.444 119.077 125.456 119.28C125.459 119.189 125.461 119.098 125.464 119.007C125.466 118.199 125.467 117.391 125.469 116.582Z" fill="#C85664"/>
<path d="M136.148 136.365L136.142 136.407L136.147 136.489L136.148 136.365Z" fill="#C85664"/>
<path d="M125.453 119.35L125.457 119.319L125.455 119.281L125.453 119.35Z" fill="#C85664"/>
<path d="M136.125 139.118L136.125 139.117L136.125 139.136V139.118Z" fill="#C85664"/>
<path d="M122.328 129.541C121.989 128.613 122.554 128.795 122.483 129.897C122.426 129.784 122.373 129.666 122.328 129.541ZM137.97 122.712C137.897 120.2 134.098 119.777 132.238 119.488C130.866 119.276 129.478 119.115 128.139 118.733C127.444 118.535 126.668 118.299 126.13 117.843C125.778 118.242 125.531 118.723 125.459 119.319C125.506 120.054 125.703 120.661 126.491 121.091C127.456 121.617 128.599 121.862 129.669 122.061C131.839 122.465 134.15 122.552 136.187 123.478C136.546 123.641 136.898 123.845 137.198 124.104C137.334 123.983 137.458 123.849 137.565 123.701C137.711 123.499 137.758 123.192 137.904 123.013C137.903 123.727 137.901 124.44 137.9 125.154L137.845 124.977C137.783 124.872 137.748 124.756 137.682 124.649C137.585 124.491 137.46 124.347 137.327 124.217L137.198 124.105L137.017 124.253C136.604 124.56 136.111 124.746 135.619 124.886C133.273 125.548 130.764 125.65 128.35 125.875C127.185 125.984 126.01 126.091 124.858 126.299C123.945 126.465 122.919 126.768 122.423 127.624C121.889 128.545 122.13 129.997 122.133 130.995C122.134 131.911 122.246 132.717 122.848 133.452C123.58 134.346 124.735 134.743 125.821 135.006C127.118 135.32 128.432 135.563 129.728 135.885C131.075 136.221 132.421 136.581 133.744 137.004C134.265 137.171 134.794 137.384 135.224 137.697C135.695 137.438 136.044 137.04 136.142 136.407C136.087 135.77 135.896 135.194 135.282 134.731C134.33 134.014 132.973 133.781 131.85 133.467C130.541 133.1 129.22 132.77 127.892 132.476C126.126 132.084 123.765 131.839 122.681 130.234C122.919 129.981 123.215 129.787 123.535 129.645C124.595 129.169 125.863 129.107 127.002 128.982C129.655 128.693 132.34 128.589 134.954 128.017C136.01 127.786 137.189 127.426 137.725 126.395C137.937 125.988 137.953 125.571 137.96 125.123C137.975 124.321 137.994 123.514 137.971 122.712L137.97 122.712Z" fill="#A73D4B"/>
<path d="M135.224 137.697C135.683 138.032 136.027 138.481 136.125 139.117L136.123 138.939L136.126 139.021C136.133 138.177 136.141 137.333 136.148 136.489L136.142 136.407C136.044 137.04 135.695 137.438 135.224 137.697V137.697Z" fill="#C85664"/>
<path d="M126.047 145.082C125.99 145.402 125.989 146.719 126.051 146.852L126.05 146.689C126.05 146.156 126.04 145.619 126.047 145.082Z" fill="#C85664"/>
<path d="M126.119 145.152C126.09 144.978 126.066 144.98 126.047 145.082C126.04 145.619 126.051 146.156 126.051 146.689L126.051 146.852C126.066 146.883 126.084 146.85 126.105 146.723C126.122 146.624 126.132 146.524 126.149 146.425C126.179 146.255 126.219 146.087 126.263 145.921L126.249 145.844C126.195 145.614 126.159 145.384 126.119 145.152L126.119 145.152Z" fill="#C85664"/>
<path d="M126.105 146.722C126.084 146.85 126.065 146.883 126.051 146.852C126.054 147.517 126.075 148.162 126.232 148.818C126.129 148.39 126.253 147.772 126.255 147.33C126.258 146.892 126.345 146.361 126.263 145.92C126.219 146.086 126.179 146.255 126.149 146.424C126.132 146.523 126.122 146.623 126.105 146.722V146.722Z" fill="#C85664"/>
<path d="M136.156 137.655C136.158 137.254 136.173 136.861 136.148 136.489C136.141 137.333 136.133 138.176 136.126 139.02L136.13 139.142L136.125 139.118V139.137L136.125 139.116C136.027 138.48 135.684 138.031 135.224 137.696C134.371 138.166 133.119 138.181 132.24 138.319C130.654 138.567 129.038 139.053 127.863 140.202C126.852 141.189 126.233 142.545 126.102 143.949C126.067 144.323 126.052 144.702 126.047 145.081C126.066 144.979 126.09 144.978 126.119 145.151C126.159 145.384 126.194 145.614 126.249 145.843L126.263 145.921C126.356 145.567 126.48 145.221 126.634 144.892C127.06 143.98 127.714 143.174 128.541 142.599C129.495 141.935 130.629 141.583 131.76 141.372C132.893 141.16 134.277 141.265 135.279 140.629C136.35 139.948 136.151 138.764 136.156 137.655V137.655Z" fill="#C85664"/>
<path d="M137.973 122.857L137.904 123.034V123.012C137.758 123.191 137.711 123.498 137.565 123.7C137.457 123.848 137.334 123.982 137.198 124.104L137.017 124.252C136.604 124.559 136.111 124.745 135.619 124.885C133.273 125.547 130.764 125.649 128.35 125.874C127.185 125.983 126.011 126.09 124.858 126.298C123.945 126.464 122.919 126.766 122.423 127.623C122.252 127.918 122.161 128.27 122.116 128.643C122.152 128.925 122.109 129.095 122.458 129.891C122.518 130.009 122.609 130.127 122.681 130.233C122.919 129.98 123.216 129.787 123.535 129.644C124.595 129.168 125.864 129.106 127.002 128.981C129.655 128.692 132.34 128.588 134.954 128.017C136.01 127.785 137.189 127.426 137.725 126.394C137.937 125.987 137.953 125.57 137.96 125.122C137.974 124.37 137.99 123.612 137.973 122.857L137.973 122.857Z" fill="#C85664"/>
<path d="M286.341 118.715L286.338 118.831L286.337 118.974C286.339 118.888 286.34 118.801 286.341 118.715Z" fill="#FC9DA9"/>
<path d="M286.344 115.791C286.342 116.804 286.34 117.817 286.338 118.83L286.342 118.715C286.34 118.8 286.339 118.887 286.337 118.973L286.338 118.83C286.334 118.944 286.331 119.057 286.328 119.172L286.33 119.221C286.422 118.474 286.731 117.871 287.173 117.371C286.723 116.989 286.406 116.487 286.344 115.791Z" fill="#FC9DA9"/>
<path d="M286.344 115.791C286.406 116.487 286.723 116.989 287.173 117.371C288.158 116.254 289.8 115.645 291.15 115.087C293.571 114.086 296.066 113.287 298.61 112.67C298.697 112.649 298.638 110.961 298.64 110.806C298.641 110.658 298.572 108.956 298.632 108.941C295.603 109.677 292.635 110.667 289.792 111.953C288.632 112.477 287.351 113.106 286.718 114.275C286.073 115.462 286.314 117.084 286.312 118.374C286.311 118.652 286.314 118.917 286.328 119.172C286.331 119.058 286.335 118.944 286.338 118.83C286.34 117.817 286.342 116.804 286.344 115.791Z" fill="#A4E1D8"/>
<path d="M286.325 119.26L286.329 119.221L286.327 119.172L286.325 119.26Z" fill="#FC9DA9"/>
<path d="M282.407 132.036C281.982 130.872 282.691 131.1 282.6 132.482C282.529 132.34 282.463 132.192 282.407 132.036ZM302.015 123.474C301.924 120.325 297.162 119.795 294.83 119.434C293.11 119.167 291.37 118.964 289.691 118.486C288.82 118.238 287.848 117.941 287.173 117.37C286.731 117.87 286.423 118.474 286.331 119.221C286.391 120.142 286.638 120.903 287.626 121.442C288.835 122.101 290.268 122.409 291.61 122.658C294.33 123.165 297.226 123.275 299.78 124.434C300.23 124.638 300.671 124.894 301.047 125.219C301.218 125.067 301.372 124.899 301.507 124.713C301.691 124.46 301.75 124.075 301.932 123.851C301.931 124.746 301.929 125.64 301.927 126.535L301.859 126.314C301.779 126.181 301.737 126.036 301.654 125.902C301.531 125.704 301.375 125.523 301.209 125.36L301.047 125.219L300.819 125.406C300.302 125.791 299.684 126.025 299.067 126.2C296.127 127.029 292.982 127.157 289.956 127.439C288.494 127.575 287.023 127.708 285.578 127.97C284.433 128.178 283.148 128.557 282.526 129.632C281.857 130.785 282.159 132.607 282.161 133.856C282.164 135.005 282.303 136.016 283.06 136.938C283.978 138.058 285.425 138.554 286.786 138.884C288.412 139.279 290.059 139.583 291.684 139.988C293.372 140.408 295.059 140.86 296.717 141.39C297.371 141.598 298.035 141.864 298.574 142.258C299.164 141.934 299.601 141.435 299.723 140.641C299.654 139.843 299.415 139.12 298.645 138.54C297.453 137.642 295.752 137.35 294.343 136.956C292.702 136.496 291.047 136.082 289.383 135.713C287.168 135.223 284.208 134.915 282.848 132.903C283.146 132.587 283.519 132.344 283.919 132.164C285.248 131.568 286.837 131.489 288.266 131.334C291.591 130.97 294.957 130.841 298.233 130.124C299.557 129.835 301.035 129.383 301.707 128.09C301.973 127.579 301.992 127.058 302.003 126.496C302.02 125.49 302.044 124.479 302.015 123.474H302.015Z" fill="#6FABA7"/>
<path d="M287.069 151.516C286.997 151.917 286.997 153.569 287.075 153.735L287.074 153.529C287.074 152.862 287.06 152.189 287.069 151.516Z" fill="#FC9DA9"/>
<path d="M287.159 151.603C287.122 151.386 287.093 151.388 287.07 151.516C287.06 152.189 287.074 152.862 287.074 153.529L287.075 153.735C287.093 153.774 287.115 153.732 287.143 153.573C287.163 153.448 287.176 153.323 287.197 153.199C287.234 152.986 287.285 152.776 287.341 152.567L287.323 152.471C287.254 152.183 287.209 151.894 287.159 151.603Z" fill="#FC9DA9"/>
<path d="M287.142 153.573C287.115 153.733 287.092 153.774 287.075 153.736C287.077 154.57 287.105 155.38 287.3 156.2C287.172 155.664 287.327 154.89 287.329 154.336C287.333 153.786 287.443 153.12 287.34 152.568C287.284 152.776 287.234 152.987 287.196 153.199C287.175 153.324 287.162 153.449 287.142 153.573Z" fill="#FC9DA9"/>
<path d="M299.74 142.207C299.743 141.703 299.762 141.211 299.731 140.744C299.722 141.802 299.712 142.86 299.703 143.918L299.708 144.071L299.702 144.04V144.064V144.039C299.58 143.242 299.148 142.678 298.574 142.259C297.504 142.847 295.934 142.867 294.832 143.039C292.844 143.351 290.819 143.959 289.346 145.399C288.078 146.636 287.302 148.335 287.137 150.095C287.093 150.566 287.076 151.041 287.069 151.516C287.092 151.388 287.122 151.386 287.159 151.603C287.209 151.894 287.254 152.182 287.322 152.47L287.34 152.567C287.457 152.125 287.611 151.692 287.805 151.277C288.339 150.135 289.159 149.126 290.195 148.404C291.391 147.572 292.813 147.131 294.232 146.866C295.651 146.601 297.386 146.732 298.641 145.935C299.984 145.081 299.734 143.598 299.74 142.207Z" fill="#A4E1D8"/>
<path d="M302.019 123.658L301.932 123.878V123.852C301.75 124.075 301.691 124.46 301.507 124.714C301.372 124.9 301.218 125.067 301.047 125.22L300.819 125.406C300.302 125.791 299.684 126.025 299.067 126.2C296.127 127.03 292.982 127.158 289.956 127.439C288.494 127.575 287.023 127.708 285.578 127.971C284.433 128.179 283.148 128.558 282.526 129.632C282.31 130.002 282.197 130.443 282.14 130.91C282.186 131.265 282.131 131.478 282.57 132.475C282.645 132.623 282.759 132.771 282.849 132.904C283.147 132.588 283.519 132.345 283.92 132.165C285.249 131.568 286.838 131.49 288.266 131.335C291.591 130.971 294.957 130.842 298.234 130.125C299.557 129.835 301.035 129.384 301.708 128.09C301.973 127.58 301.993 127.059 302.003 126.497C302.02 125.553 302.04 124.603 302.019 123.658V123.658Z" fill="#A4E1D8"/>
<path d="M70.9007 214.993L70.8986 215.084L70.8979 215.196L70.9007 214.993Z" fill="#6FABA7"/>
<path d="M70.9026 212.7C70.9008 213.495 70.9001 214.289 70.8979 215.084L70.9008 214.993L70.8972 215.196L70.8979 215.084C70.8955 215.173 70.8926 215.263 70.8901 215.351L70.8926 215.39C70.9636 214.805 71.2056 214.332 71.5527 213.939C71.2003 213.64 70.9505 213.246 70.9022 212.7L70.9026 212.7Z" fill="#6FABA7"/>
<path d="M81.3843 234.881L81.3815 234.761L81.3809 234.857L81.3843 234.881Z" fill="#6FABA7"/>
<path d="M81.3815 234.761L81.3794 234.681L81.38 234.856L81.3809 234.857L81.3815 234.761Z" fill="#6FABA7"/>
<path d="M70.9029 212.7C70.9511 213.246 71.201 213.64 71.5534 213.939C72.3257 213.064 73.6144 212.586 74.6731 212.148C76.5718 211.363 78.5284 210.736 80.5245 210.252C80.5919 210.236 80.5472 208.912 80.5482 208.79C80.5482 208.674 80.4946 207.338 80.5422 207.328C78.1657 207.903 75.8375 208.682 73.6083 209.69C72.6983 210.101 71.6936 210.593 71.1967 211.511C70.691 212.442 70.8794 213.715 70.8777 214.725C70.8766 214.943 70.8784 215.152 70.8908 215.351C70.8933 215.263 70.8961 215.173 70.8986 215.084C70.9007 214.289 70.9014 213.495 70.9032 212.7H70.9029Z" fill="#6FABA7"/>
<path d="M81.4037 232.152L81.3975 232.191L81.4027 232.272L81.4037 232.152Z" fill="#6FABA7"/>
<path d="M70.8877 215.421L70.8923 215.39L70.8902 215.351L70.8877 215.421Z" fill="#6FABA7"/>
<path d="M81.3808 234.857L81.3799 234.856L81.3808 234.876V234.857Z" fill="#6FABA7"/>
<path d="M67.8145 225.442C67.4812 224.529 68.037 224.707 67.9671 225.792C67.911 225.681 67.8592 225.565 67.8145 225.442ZM83.1945 218.727C83.1225 216.257 79.387 215.841 77.5589 215.558C76.2095 215.348 74.8449 215.19 73.5282 214.815C72.8453 214.619 72.0819 214.388 71.5531 213.939C71.206 214.332 70.964 214.805 70.893 215.39C70.9395 216.113 71.1322 216.71 71.908 217.132C72.8567 217.65 73.9796 217.892 75.0323 218.087C77.166 218.484 79.4381 218.57 81.4413 219.479C81.7948 219.64 82.1401 219.84 82.4354 220.095C82.5684 219.977 82.6902 219.845 82.7952 219.699C82.94 219.5 82.9855 219.198 83.1296 219.022C83.1285 219.725 83.1267 220.426 83.125 221.128L83.0714 220.954C83.01 220.85 82.9766 220.736 82.9109 220.631C82.8155 220.475 82.6927 220.334 82.5621 220.206L82.435 220.095L82.2568 220.241C81.8501 220.543 81.3657 220.727 80.8826 220.864C78.5761 221.515 76.1094 221.616 73.7358 221.837C72.5901 221.943 71.4346 222.048 70.3024 222.253C69.4045 222.416 68.3958 222.714 67.9082 223.556C67.3833 224.462 67.6207 225.889 67.6225 226.87C67.6242 227.771 67.7339 228.564 68.3263 229.287C69.046 230.165 70.1814 230.555 71.2489 230.814C72.5241 231.123 73.8157 231.362 75.0912 231.679C76.4157 232.008 77.7385 232.364 79.0385 232.779C79.5514 232.943 80.0724 233.152 80.4958 233.461C80.9586 233.206 81.3014 232.814 81.3976 232.191C81.3433 231.566 81.1555 230.999 80.5515 230.543C79.6163 229.84 78.2822 229.61 77.1767 229.301C75.889 228.941 74.5915 228.615 73.2858 228.326C71.5503 227.942 69.2277 227.7 68.1619 226.122C68.3962 225.874 68.6876 225.684 69.0017 225.542C70.044 225.075 71.2915 225.013 72.4099 224.891C75.0188 224.606 77.659 224.505 80.2292 223.943C81.267 223.715 82.4261 223.361 82.9535 222.347C83.1622 221.947 83.1771 221.538 83.1853 221.097C83.1991 220.308 83.2186 219.514 83.1949 218.727H83.1945Z" fill="#5E8D8C"/>
<path d="M80.4956 233.461C80.946 233.79 81.2846 234.233 81.3801 234.856L81.3794 234.682L81.3818 234.762C81.3889 233.933 81.396 233.102 81.4038 232.272L81.3978 232.191C81.3013 232.814 80.9584 233.206 80.496 233.461H80.4956Z" fill="#6FABA7"/>
<path d="M71.4721 240.721C71.416 241.036 71.415 242.331 71.4764 242.462L71.4757 242.3C71.4757 241.778 71.465 241.25 71.4721 240.721Z" fill="#6FABA7"/>
<path d="M71.5427 240.79C71.5139 240.62 71.4901 240.622 71.4717 240.721C71.4646 241.25 71.4752 241.778 71.4752 242.3L71.4759 242.462C71.4901 242.493 71.5075 242.459 71.5285 242.335C71.5451 242.238 71.5547 242.138 71.5714 242.042C71.6012 241.874 71.6406 241.709 71.6836 241.545L71.6704 241.471C71.6161 241.244 71.5814 241.018 71.5423 240.79H71.5427Z" fill="#6FABA7"/>
<path d="M71.5286 242.335C71.5073 242.459 71.4899 242.493 71.4761 242.462C71.4778 243.116 71.4988 243.752 71.6521 244.396C71.5524 243.975 71.6734 243.368 71.6759 242.933C71.6784 242.502 71.7643 241.98 71.6837 241.546C71.6408 241.71 71.6014 241.875 71.5715 242.042C71.5549 242.139 71.5453 242.239 71.5286 242.335V242.335Z" fill="#6FABA7"/>
<path d="M81.4116 233.419C81.4127 233.024 81.4283 232.638 81.4038 232.272C81.396 233.101 81.3889 233.932 81.3818 234.761L81.3854 234.881L81.3811 234.857V234.876L81.3801 234.856C81.2846 234.233 80.9464 233.789 80.4956 233.461C79.6566 233.922 78.4251 233.937 77.5609 234.073C76.0021 234.316 74.4128 234.794 73.2576 235.923C72.2635 236.894 71.6541 238.227 71.5253 239.607C71.4909 239.976 71.477 240.348 71.4717 240.721C71.4901 240.622 71.5136 240.62 71.5427 240.79C71.5813 241.018 71.6165 241.244 71.6708 241.471L71.6839 241.545C71.7762 241.199 71.8972 240.859 72.0488 240.534C72.4676 239.639 73.1114 238.846 73.9245 238.28C74.8625 237.628 75.9765 237.281 77.0899 237.074C78.2033 236.867 79.5647 236.969 80.5492 236.344C81.6019 235.674 81.4063 234.51 81.4116 233.419Z" fill="#6FABA7"/>
<path d="M83.1973 218.87L83.1299 219.042V219.022C82.9861 219.198 82.9403 219.5 82.7955 219.699C82.6905 219.844 82.5687 219.976 82.4356 220.095L82.2575 220.241C81.8508 220.543 81.3663 220.726 80.8833 220.863C78.5767 221.515 76.1101 221.615 73.7365 221.836C72.5908 221.943 71.4352 222.048 70.303 222.253C69.4051 222.416 68.3965 222.714 67.9088 223.556C67.7395 223.846 67.6505 224.191 67.6064 224.558C67.6426 224.837 67.5994 225.003 67.9433 225.786C68.0029 225.901 68.0913 226.017 68.1626 226.122C68.3968 225.873 68.6882 225.683 69.0023 225.542C70.0447 225.074 71.2922 225.013 72.4105 224.891C75.0195 224.606 77.6596 224.505 80.2299 223.942C81.2676 223.715 82.4268 223.36 82.9542 222.347C83.1629 221.946 83.1778 221.538 83.1859 221.096C83.1991 220.355 83.2147 219.611 83.198 218.87L83.1973 218.87Z" fill="#6FABA7"/>
<path d="M194.467 46.9581L194.464 47.0493V47.1616L194.467 46.9581Z" fill="#6FABA7"/>
<path d="M194.469 44.6643C194.468 45.4598 194.466 46.2536 194.464 47.0494L194.467 46.9581L194.464 47.1616V47.0494C194.461 47.1378 194.459 47.2273 194.457 47.3168L194.458 47.3555C194.529 46.7696 194.773 46.2969 195.119 45.9041C194.766 45.6058 194.517 45.2112 194.469 44.6647L194.469 44.6643Z" fill="#6FABA7"/>
<path d="M204.951 66.8462L204.947 66.7269L204.947 66.8225L204.951 66.8462Z" fill="#6FABA7"/>
<path d="M204.947 66.7269L204.945 66.6462L204.946 66.8206V66.8224L204.947 66.7269Z" fill="#6FABA7"/>
<path d="M194.47 44.6642C194.518 45.2107 194.767 45.6053 195.119 45.9036C195.892 45.0282 197.18 44.5498 198.239 44.1123C200.138 43.3274 202.094 42.701 204.091 42.2169C204.159 42.2002 204.113 40.8773 204.114 40.7545C204.115 40.6387 204.062 39.3037 204.108 39.292C201.731 39.8684 199.403 40.6465 197.174 41.654C196.265 42.0646 195.26 42.5582 194.762 43.4759C194.257 44.4067 194.446 45.6788 194.444 46.6899C194.443 46.9076 194.445 47.1164 194.457 47.3163C194.459 47.2268 194.462 47.1373 194.464 47.0489C194.466 46.2534 194.468 45.4597 194.47 44.6638V44.6642Z" fill="#6FABA7"/>
<path d="M204.971 64.1161L204.963 64.1566L204.97 64.2372L204.971 64.1161Z" fill="#6FABA7"/>
<path d="M194.455 47.3859L194.457 47.3552L194.457 47.3168L194.455 47.3859Z" fill="#6FABA7"/>
<path d="M191.381 57.407C191.047 56.494 191.604 56.6726 191.533 57.7561C191.477 57.6457 191.426 57.5299 191.381 57.407ZM206.761 50.6914C206.69 48.2214 202.954 47.8066 201.126 47.5225C199.777 47.3126 198.412 47.1538 197.094 46.7795C196.411 46.5846 195.649 46.3519 195.119 45.9041C194.773 46.2969 194.53 46.7699 194.458 47.3556C194.507 48.0783 194.699 48.6749 195.475 49.0975C196.424 49.6142 197.546 49.8564 198.599 50.0521C200.733 50.4485 203.004 50.5344 205.008 51.445C205.362 51.6044 205.707 51.8044 206.002 52.0608C206.136 51.9415 206.256 51.8101 206.362 51.6644C206.507 51.4652 206.553 51.1626 206.696 50.9872C206.695 51.689 206.693 52.3907 206.692 53.0932L206.638 52.9188C206.578 52.8155 206.544 52.7015 206.478 52.596C206.382 52.4397 206.26 52.2987 206.13 52.1716L206.002 52.0608L205.824 52.2064C205.418 52.5079 204.933 52.6922 204.449 52.8293C202.143 53.4799 199.677 53.5801 197.303 53.801C196.156 53.9082 195.002 54.0126 193.869 54.2186C192.971 54.3816 191.963 54.6792 191.474 55.5209C190.95 56.4251 191.187 57.8542 191.189 58.8347C191.191 59.7364 191.3 60.5276 191.893 61.2514C192.613 62.1304 193.749 62.5196 194.816 62.7785C196.091 63.0875 197.383 63.3268 198.658 63.6443C199.982 63.9732 201.305 64.3287 202.605 64.7435C203.118 64.9075 203.639 65.1164 204.062 65.425C204.524 65.17 204.867 64.7793 204.963 64.1568C204.909 63.5303 204.721 62.9639 204.118 62.5086C203.183 61.8044 201.849 61.5753 200.744 61.2656C199.456 60.9051 198.158 60.5805 196.852 60.2908C195.116 59.9058 192.794 59.6646 191.728 58.0864C191.962 57.8382 192.254 57.6489 192.567 57.5075C193.611 57.0391 194.858 56.9787 195.976 56.8559C198.584 56.5707 201.225 56.4698 203.796 55.9069C204.833 55.6796 205.993 55.3252 206.52 54.3113C206.729 53.9111 206.744 53.5023 206.752 53.0612C206.766 52.2728 206.784 51.4798 206.761 50.691V50.6914Z" fill="#5E8D8C"/>
<path d="M204.062 65.4249C204.513 65.7538 204.851 66.197 204.946 66.8206L204.945 66.6463L204.947 66.7272C204.955 65.8973 204.962 65.0677 204.969 64.2377L204.963 64.1567C204.866 64.7797 204.524 65.1699 204.062 65.4249H204.062Z" fill="#6FABA7"/>
<path d="M195.038 72.686C194.982 73.001 194.981 74.2966 195.042 74.4266V74.265C195.042 73.7422 195.031 73.2141 195.038 72.686Z" fill="#6FABA7"/>
<path d="M195.11 72.7551C195.08 72.5846 195.056 72.5864 195.039 72.6865C195.031 73.2146 195.043 73.7427 195.043 74.2655V74.427C195.057 74.4576 195.075 74.4249 195.095 74.2999C195.113 74.2026 195.122 74.1042 195.139 74.0069C195.168 73.8393 195.208 73.6752 195.251 73.5115L195.238 73.4358C195.184 73.2096 195.149 72.9841 195.111 72.7554L195.11 72.7551Z" fill="#6FABA7"/>
<path d="M195.095 74.2995C195.074 74.4249 195.056 74.4575 195.042 74.4266C195.044 75.0808 195.066 75.7158 195.219 76.36C195.118 75.9399 195.24 75.3319 195.243 74.8975C195.245 74.4668 195.331 73.944 195.25 73.5107C195.207 73.6745 195.167 73.8385 195.138 74.0062C195.12 74.1035 195.112 74.2015 195.094 74.2991L195.095 74.2995Z" fill="#6FABA7"/>
<path d="M204.977 65.3842C204.979 64.9893 204.995 64.6036 204.969 64.2378C204.962 65.0674 204.955 65.8974 204.947 66.7273L204.951 66.8463L204.947 66.8225V66.841V66.8207C204.851 66.1971 204.513 65.7539 204.062 65.425C203.223 65.8874 201.991 65.9023 201.128 66.0373C199.569 66.2813 197.98 66.7589 196.825 67.8879C195.829 68.8581 195.221 70.1913 195.092 71.5721C195.057 71.9407 195.043 72.3133 195.039 72.6862C195.057 72.5864 195.08 72.5846 195.11 72.7547C195.149 72.9834 195.184 73.2089 195.237 73.4352L195.251 73.5108C195.342 73.1635 195.463 72.824 195.616 72.4994C196.035 71.6037 196.678 70.8107 197.491 70.2453C198.43 69.5926 199.543 69.247 200.657 69.0393C201.77 68.8315 203.131 68.9341 204.115 68.3084C205.169 67.6393 204.973 66.4752 204.978 65.3842H204.977Z" fill="#6FABA7"/>
<path d="M206.764 50.8352L206.695 51.0071V50.9868C206.552 51.1623 206.507 51.4649 206.362 51.6641C206.256 51.8097 206.135 51.9411 206.001 52.0604L205.824 52.206C205.417 52.5075 204.932 52.6919 204.449 52.8289C202.142 53.4796 199.676 53.5797 197.302 53.8006C196.156 53.9079 195.001 54.0123 193.868 54.2183C192.97 54.3813 191.962 54.6789 191.474 55.5205C191.306 55.811 191.216 56.1566 191.171 56.5234C191.208 56.8015 191.165 56.9681 191.509 57.7505C191.567 57.8662 191.657 57.982 191.727 58.0864C191.961 57.8382 192.254 57.6489 192.567 57.5075C193.61 57.0391 194.857 56.9787 195.976 56.8559C198.584 56.5707 201.224 56.4698 203.795 55.9069C204.832 55.6796 205.992 55.3252 206.52 54.3113C206.728 53.9111 206.743 53.5023 206.751 53.0612C206.764 52.3211 206.78 51.5764 206.763 50.8352H206.764Z" fill="#6FABA7"/>
<path d="M118.99 188.51L127.908 184.284L129.506 188.51L120.871 192.438L118.99 188.51Z" fill="#C85664"/>
<path d="M244.967 182.744L251.217 190.384L247.505 192.956L241.612 185.519L244.967 182.744Z" fill="#C85664"/>
<path d="M232.873 149.972L223.842 145.993L225.988 142.017L234.609 145.978L232.873 149.972Z" fill="#6FABA7"/>
<path d="M106.356 262.765L106.962 252.911L111.432 253.549L110.702 263.013L106.356 262.765Z" fill="#A4E1D8"/>
<path d="M256.331 88.8512L263.121 81.6855L266.137 85.0466L259.505 91.8343L256.331 88.8512Z" fill="#A4E1D8"/>
<path d="M71.3315 106.427L81.1292 105.25L81.3056 109.766L71.8707 110.75L71.3315 106.427Z" fill="#A4E1D8"/>
<path d="M184.348 122.653L191.136 115.487L194.154 118.849L187.52 125.635L184.348 122.653Z" fill="#A4E1D8"/>
<path d="M107.349 127.734L100.412 120.711L103.869 117.803L110.431 124.658L107.349 127.734Z" fill="#C85664"/>
<path d="M85.7012 38.8453L78.2623 45.3326L75.5781 41.6988L82.8265 35.5745L85.7012 38.8453Z" fill="#A4E1D8"/>
<path d="M46.2899 174.526L53.4857 181.282L50.1417 184.319L43.3257 177.716L46.2899 174.526Z" fill="#A4E1D8"/>
<path d="M155.534 69.7676L165.204 67.7994L165.744 72.2852L156.421 74.0325L155.534 69.7676Z" fill="#6FABA7"/>
</g>
</g>
<defs>
<clipPath id="clip0">
<rect width="747" height="284" fill="white" transform="translate(-181.427 -20.9866)"/>
</clipPath>
</defs>
</svg>
