<svg width="302" height="304" viewBox="0 0 302 304" fill="none" xmlns="http://www.w3.org/2000/svg">
        <path d="M140.155 289.899C219.024 291.654 236.661 242.769 283.937 182.058C331.212 121.347 253.12 14.2793 174.252 12.5236C95.3838 10.768 5.30011 48.7341 3.74044 118.799C2.18076 188.863 61.2873 288.143 140.155 289.899Z" fill="#A4E1D8"/>
<path fill-rule="evenodd" clip-rule="evenodd" d="M16.3537 195.942C6.47873 157.365 12.6459 131.208 27.333 107.032C34.7449 94.8315 44.3579 83.0901 55.3575 70.4554C58.4873 66.8604 61.7321 63.1902 65.0653 59.4199L65.0655 59.4196C73.3975 49.9951 82.2819 39.9457 91.3038 28.8843C115.296 -0.531736 157.49 -3.04433 197.013 12.1338C236.479 27.2899 271.866 59.6304 281.631 97.7777C290.106 130.885 286.521 168.954 274.115 203.062H277.303C289.584 168.737 293.099 130.482 284.537 97.0319C264.386 18.3111 139.347 -34.7642 88.9801 26.9884C79.9981 38.0008 71.1768 47.9788 62.8587 57.3875C24.5327 100.739 -3.10949 132.005 13.4479 196.688C33.5988 275.409 116.998 317.262 187.473 299.173C194.82 297.288 201.91 294.454 208.692 290.801C207.501 290.329 206.336 289.809 205.197 289.243C199.251 292.266 193.083 294.637 186.729 296.267C117.729 313.977 36.0613 272.931 16.3537 195.942Z" fill="#5E8D8C"/>
</svg>
