<svg width="295" height="292" viewBox="0 0 295 292" fill="none" xmlns="http://www.w3.org/2000/svg">
<path d="M262.914 226.642C304.434 159.565 271.252 119.567 242.914 48.0287C214.575 -23.5094 82.692 -10.5232 41.1715 56.5538C-0.348916 123.631 -13.327 220.523 46.2627 257.409C105.852 294.294 221.393 293.719 262.914 226.642Z" fill="#FC9DA9"/>
<path fill-rule="evenodd" clip-rule="evenodd" d="M281.068 195.211C282.268 192.223 283.417 189.099 284.515 185.831C309.804 110.614 263.586 31.7915 196.067 9.0854C162.748 -2.1198 122.351 7.36796 86.8201 29.5188C51.3326 51.6427 21.2779 86.0601 8.6098 123.739C-3.9204 161.008 8.19951 207.354 33.0789 241.525C57.2206 274.682 92.4906 295.29 127.51 285.993H137.726C135.763 286.601 133.785 287.223 131.792 287.863C55.984 312.195 -20.0933 199.698 5.76629 122.783C31.6259 45.868 128.065 -16.9485 197.024 6.24182C265.982 29.4321 313.219 109.872 287.359 186.787C286.378 189.704 285.357 192.51 284.296 195.211H281.068Z" fill="#5E8D8C"/>
</svg>
