<svg width="360" height="316" fill="none" xmlns="http://www.w3.org/2000/svg"><path d="M-102.235 30.393h39.113c9.072 62.314 89.084 156.752 235.723 200.03 146.639 43.277 296.252-76.74 296.252-76.74v161.838h-571.088V30.393z" fill="#fff"/><path fill-rule="evenodd" clip-rule="evenodd" d="M-70.55 30.393h7.429c9.072 62.314 89.084 156.752 235.722 200.03 34.74 10.252 69.647 11.34 102.692 7.03-16.59 2.554-33.792 4.579-51.532 6.057C83.636 255.187-65.084 158.384-70.551 30.393zm372.13 202.469c71.035-13.935 129.032-38.254 167.273-71.483v-7.696s-73.144 58.675-167.273 79.179z" fill="#274646"/><path fill-rule="evenodd" clip-rule="evenodd" d="M-70.55 30.393h7.429c9.072 62.314 89.084 156.752 235.722 200.03 34.74 10.252 69.647 11.34 102.692 7.03-16.59 2.554-33.792 4.579-51.532 6.057C83.636 255.187-65.084 158.384-70.551 30.393zm372.13 202.469c71.035-13.935 129.032-38.254 167.273-71.483v-7.696s-73.144 58.675-167.273 79.179z" fill="url(#paint0_linear)"/><path fill-rule="evenodd" clip-rule="evenodd" d="M-35.842.26c9.265 84.481 62.281 168.263 153.138 208.684 135.168 60.135 273.136 36.515 327.362-51.654 28.301-46.016 37.887-101.849 30.66-157.03h-3.03c7.237 54.668-2.209 109.971-30.185 155.458-53.081 86.307-189.061 110.335-323.588 50.485C28.743 166.264-23.575 83.583-32.819.26h-3.023z" fill="#C85664"/><defs><linearGradient id="paint0_linear" x1="199.151" y1="30.393" x2="199.151" y2="244.465" gradientUnits="userSpaceOnUse"><stop stop-opacity=".18"/><stop offset="1" stop-color="#274646"/></linearGradient></defs></svg>