<svg width="360" height="204" fill="none" xmlns="http://www.w3.org/2000/svg"><path d="M-102.235-62.607h39.113C-54.05-.293 25.962 94.145 172.601 137.423c146.639 43.277 296.252-76.74 296.252-76.74V222.52h-571.088V-62.607z" fill="#fff"/><path fill-rule="evenodd" clip-rule="evenodd" d="M-70.55-62.607h7.429C-54.05-.293 25.963 94.145 172.6 137.423c34.74 10.252 69.647 11.34 102.691 7.03-16.589 2.554-33.791 4.579-51.531 6.057C83.636 162.187-65.084 65.385-70.551-62.607zm372.13 202.469c71.035-13.935 129.032-38.254 167.273-71.483v-7.696s-73.144 58.674-167.273 79.179z" fill="#274646"/><path fill-rule="evenodd" clip-rule="evenodd" d="M-70.55-62.607h7.429C-54.05-.293 25.963 94.145 172.6 137.423c34.74 10.252 69.647 11.34 102.691 7.03-16.589 2.554-33.791 4.579-51.531 6.057C83.636 162.187-65.084 65.385-70.551-62.607zm372.13 202.469c71.035-13.935 129.032-38.254 167.273-71.483v-7.696s-73.144 58.674-167.273 79.179z" fill="url(#paint0_linear)"/><path fill-rule="evenodd" clip-rule="evenodd" d="M-35.842-92.74C-26.577-8.259 26.44 75.523 117.296 115.944c135.168 60.135 273.136 36.515 327.362-51.654 28.301-46.016 37.887-101.849 30.66-157.03h-3.03c7.237 54.668-2.209 109.971-30.185 155.458-53.081 86.307-189.061 110.335-323.588 50.485C28.743 73.264-23.575-9.417-32.819-92.74h-3.023z" fill="#C85664"/><defs><linearGradient id="paint0_linear" x1="199.151" y1="-62.607" x2="199.151" y2="151.465" gradientUnits="userSpaceOnUse"><stop stop-opacity=".18"/><stop offset="1" stop-color="#274646"/></linearGradient></defs></svg>