<svg width="360" height="316" viewBox="0 0 360 316" fill="none" xmlns="http://www.w3.org/2000/svg">
<path d="M-102.235 30.3929H-63.1217C-54.0498 92.707 25.9621 187.145 172.601 230.423C319.24 273.7 468.853 153.683 468.853 153.683V315.521H-102.235V30.3929Z" fill="white"/>
<path fill-rule="evenodd" clip-rule="evenodd" d="M-70.5508 30.3929L-63.1214 30.3929C-54.0494 92.707 25.9625 187.145 172.601 230.423C207.341 240.675 242.248 241.763 275.293 237.453C258.703 240.007 241.501 242.032 223.761 243.51C83.6365 255.187 -65.0836 158.384 -70.5508 30.3929ZM301.581 232.862C372.616 218.927 430.613 194.608 468.854 161.379V153.683C468.854 153.683 395.71 212.358 301.581 232.862Z" fill="#274646"/>
<path fill-rule="evenodd" clip-rule="evenodd" d="M-70.5508 30.3929L-63.1214 30.3929C-54.0494 92.707 25.9625 187.145 172.601 230.423C207.341 240.675 242.248 241.763 275.293 237.453C258.703 240.007 241.501 242.032 223.761 243.51C83.6365 255.187 -65.0836 158.384 -70.5508 30.3929ZM301.581 232.862C372.616 218.927 430.613 194.608 468.854 161.379V153.683C468.854 153.683 395.71 212.358 301.581 232.862Z" fill="url(#paint0_linear)"/>
<path fill-rule="evenodd" clip-rule="evenodd" d="M-35.8418 0.26004C-26.5771 84.7412 26.4392 168.523 117.296 208.944C252.464 269.079 390.432 245.459 444.658 157.29C472.959 111.274 482.545 55.4412 475.318 0.26004H472.288C479.525 54.9284 470.079 110.231 442.103 155.718C389.022 242.025 253.042 266.053 118.515 206.203C28.7434 166.264 -23.5741 83.5832 -32.8188 0.26004H-35.8418Z" fill="#C85664"/>
<defs>
<linearGradient id="paint0_linear" x1="199.151" y1="30.3929" x2="199.151" y2="244.465" gradientUnits="userSpaceOnUse">
<stop stop-opacity="0.18"/>
<stop offset="1" stop-color="#274646"/>
</linearGradient>
</defs>
</svg>
