<svg width="360" height="204" viewBox="0 0 360 204" fill="none" xmlns="http://www.w3.org/2000/svg">
<path d="M-102.235 -62.6071H-63.1217C-54.0498 -0.292973 25.9621 94.1448 172.601 137.423C319.24 180.7 468.853 60.6826 468.853 60.6826V222.521H-102.235V-62.6071Z" fill="white"/>
<path fill-rule="evenodd" clip-rule="evenodd" d="M-70.5508 -62.6071L-63.1214 -62.6071C-54.0494 -0.292995 25.9625 94.1448 172.601 137.423C207.341 147.675 242.248 148.763 275.292 144.453C258.703 147.007 241.501 149.032 223.761 150.51C83.6365 162.187 -65.0836 65.3845 -70.5508 -62.6071ZM301.581 139.862C372.616 125.927 430.613 101.608 468.854 68.379V60.6826C468.854 60.6826 395.71 119.357 301.581 139.862Z" fill="#274646"/>
<path fill-rule="evenodd" clip-rule="evenodd" d="M-70.5508 -62.6071L-63.1214 -62.6071C-54.0494 -0.292995 25.9625 94.1448 172.601 137.423C207.341 147.675 242.248 148.763 275.292 144.453C258.703 147.007 241.501 149.032 223.761 150.51C83.6365 162.187 -65.0836 65.3845 -70.5508 -62.6071ZM301.581 139.862C372.616 125.927 430.613 101.608 468.854 68.379V60.6826C468.854 60.6826 395.71 119.357 301.581 139.862Z" fill="url(#paint0_linear)"/>
<path fill-rule="evenodd" clip-rule="evenodd" d="M-35.8418 -92.74C-26.5771 -8.25881 26.4392 75.5228 117.296 115.944C252.464 176.079 390.432 152.459 444.658 64.2901C472.959 18.2744 482.545 -37.5588 475.318 -92.74H472.288C479.525 -38.0716 470.079 17.2315 442.103 62.7184C389.022 149.025 253.042 173.053 118.515 113.203C28.7434 73.2645 -23.5741 -9.41685 -32.8188 -92.74H-35.8418Z" fill="#C85664"/>
<defs>
<linearGradient id="paint0_linear" x1="199.151" y1="-62.6071" x2="199.151" y2="151.465" gradientUnits="userSpaceOnUse">
<stop stop-opacity="0.18"/>
<stop offset="1" stop-color="#274646"/>
</linearGradient>
</defs>
</svg>
