<svg width="1920" height="837" viewBox="0 0 1920 837" fill="none" xmlns="http://www.w3.org/2000/svg">
<path d="M0 36.2398H131.5C162 248.459 431 570.08 924 717.468C1417 864.857 1920 456.12 1920 456.12V837H0V36.2398Z" fill="white"/>
<path fill-rule="evenodd" clip-rule="evenodd" d="M107.005 -11.8767L131.982 -11.8767C162.482 200.343 431.482 521.964 924.482 669.352C1041.28 704.27 1158.64 707.974 1269.74 693.295C1213.96 701.993 1156.13 708.888 1096.48 713.923C625.383 753.691 125.386 424.016 107.005 -11.8767ZM1358.1 677.663C1596.93 630.205 1791.92 547.382 1920.48 434.215V408.003C1920.48 408.003 1674.57 607.833 1358.1 677.663Z" fill="#274646"/>
<path fill-rule="evenodd" clip-rule="evenodd" d="M107.005 -11.8767L131.982 -11.8767C162.482 200.343 431.482 521.964 924.482 669.352C1041.28 704.27 1158.64 707.974 1269.74 693.295C1213.96 701.993 1156.13 708.888 1096.48 713.923C625.383 753.691 125.386 424.016 107.005 -11.8767ZM1358.1 677.663C1596.93 630.205 1791.92 547.382 1920.48 434.215V408.003C1920.48 408.003 1674.57 607.833 1358.1 677.663Z" fill="url(#paint0_linear)"/>
<path d="M2004.48 -51.8895C2004.48 299.548 1651.92 613.863 1159.28 680.528C636.143 751.32 192.983 339.571 192.983 -107.603C192.983 -554.757 594.213 -917.5 1089.48 -917.5C1584.66 -917.5 2004.48 -499.129 2004.48 -51.8895Z" stroke="#C85664" stroke-width="3"/>
<defs>
<linearGradient id="paint0_linear" x1="1013.74" y1="-11.8767" x2="1013.74" y2="717.176" gradientUnits="userSpaceOnUse">
<stop stop-opacity="0.18"/>
<stop offset="1" stop-color="#274646"/>
</linearGradient>
</defs>
</svg>
