<svg width="177" height="49" viewBox="0 0 177 49" fill="none" xmlns="http://www.w3.org/2000/svg">
<path d="M65.5405 31L64.6825 27.334H59.8725L59.0405 31H56.2845L60.8605 12.8H63.6945L68.2705 31H65.5405ZM60.4445 24.89H64.1365L62.9925 20.002C62.7325 18.7887 62.5072 17.4887 62.3165 16.102H62.2385C62.0132 17.7487 61.7879 19.0487 61.5625 20.002L60.4445 24.89ZM79.3618 17.298V31H76.8398V19.612H73.0178V31H70.4958V17.298H79.3618ZM87.2406 16.96C88.6966 16.96 89.7973 17.3847 90.5426 18.234C91.3053 19.0833 91.6866 20.3053 91.6866 21.9V31H89.6326L89.4506 29.726C88.8093 30.8007 87.7953 31.338 86.4086 31.338C85.1433 31.338 84.1206 30.9567 83.3406 30.194C82.5779 29.414 82.1966 28.3827 82.1966 27.1C82.1966 25.7307 82.6386 24.682 83.5226 23.954C84.4066 23.226 85.6199 22.862 87.1626 22.862H89.1646V21.9C89.1646 20.2187 88.5059 19.378 87.1886 19.378C86.6166 19.378 86.1399 19.534 85.7586 19.846C85.3946 20.158 85.1779 20.6087 85.1086 21.198H82.5866C82.6559 19.8807 83.1066 18.8493 83.9386 18.104C84.7706 17.3413 85.8713 16.96 87.2406 16.96ZM89.1646 26.918V25.046H87.1626C85.5506 25.046 84.7446 25.7307 84.7446 27.1C84.7446 27.724 84.9353 28.218 85.3166 28.582C85.6979 28.9287 86.2353 29.102 86.9286 29.102C87.6046 29.102 88.1419 28.9027 88.5406 28.504C88.9566 28.1053 89.1646 27.5767 89.1646 26.918ZM100.321 16.986C101.639 16.986 102.696 17.4627 103.493 18.416C104.291 19.352 104.689 20.6433 104.689 22.29V26.06C104.689 27.7067 104.291 28.998 103.493 29.934C102.713 30.8527 101.656 31.312 100.321 31.312C99.2639 31.312 98.3886 30.948 97.6952 30.22V35.68H95.2252V17.272H97.0452L97.2272 18.546C97.5739 18.0953 98.0246 17.7227 98.5792 17.428C99.1512 17.1333 99.7319 16.986 100.321 16.986ZM102.115 26.06V22.29C102.115 20.3313 101.379 19.352 99.9052 19.352C99.2292 19.352 98.6919 19.6033 98.2932 20.106C97.8946 20.5913 97.6952 21.3107 97.6952 22.264V26.06C97.6952 26.9613 97.8859 27.672 98.2672 28.192C98.6659 28.6947 99.2119 28.946 99.9052 28.946C101.379 28.946 102.115 27.984 102.115 26.06ZM114.583 17.298V19.664H111.437V31H108.941V19.664H105.821V17.298H114.583ZM121.927 31.312C120.298 31.312 119.006 30.818 118.053 29.83C117.117 28.842 116.649 27.4467 116.649 25.644V18.156C116.649 16.336 117.117 14.932 118.053 13.944C118.989 12.956 120.272 12.462 121.901 12.462C123.565 12.462 124.865 12.9473 125.801 13.918C126.737 14.8713 127.24 16.2493 127.309 18.052H124.709C124.553 15.9893 123.608 14.958 121.875 14.958C121.078 14.958 120.454 15.2267 120.003 15.764C119.552 16.3013 119.327 17.0987 119.327 18.156V25.644C119.327 26.7013 119.552 27.4987 120.003 28.036C120.471 28.556 121.112 28.816 121.927 28.816C123.678 28.816 124.64 27.7933 124.813 25.748H127.413C127.326 27.5333 126.806 28.9113 125.853 29.882C124.917 30.8353 123.608 31.312 121.927 31.312ZM137.688 17.298V19.664H134.542V31H132.046V19.664H128.926V17.298H137.688ZM145.057 16.986C146.375 16.986 147.432 17.4627 148.229 18.416C149.027 19.352 149.425 20.6433 149.425 22.29V26.06C149.425 27.7067 149.027 28.998 148.229 29.934C147.449 30.8527 146.392 31.312 145.057 31.312C144 31.312 143.125 30.948 142.431 30.22V35.68H139.961V17.272H141.781L141.963 18.546C142.31 18.0953 142.761 17.7227 143.315 17.428C143.887 17.1333 144.468 16.986 145.057 16.986ZM146.851 26.06V22.29C146.851 20.3313 146.115 19.352 144.641 19.352C143.965 19.352 143.428 19.6033 143.029 20.106C142.631 20.5913 142.431 21.3107 142.431 22.264V26.06C142.431 26.9613 142.622 27.672 143.003 28.192C143.402 28.6947 143.948 28.946 144.641 28.946C146.115 28.946 146.851 27.984 146.851 26.06ZM157.116 31.312C155.626 31.312 154.447 30.8613 153.58 29.96C152.731 29.0587 152.306 27.776 152.306 26.112V22.16C152.306 20.496 152.731 19.2133 153.58 18.312C154.447 17.4107 155.626 16.96 157.116 16.96C158.624 16.96 159.803 17.4107 160.652 18.312C161.519 19.2133 161.952 20.496 161.952 22.16V26.112C161.952 27.776 161.519 29.0587 160.652 29.96C159.803 30.8613 158.624 31.312 157.116 31.312ZM157.116 28.868C158.642 28.868 159.404 27.9493 159.404 26.112V22.16C159.404 20.3227 158.642 19.404 157.116 19.404C155.608 19.404 154.854 20.3227 154.854 22.16V26.112C154.854 27.9493 155.608 28.868 157.116 28.868ZM171.985 14.36C171.431 14.8973 170.694 15.166 169.775 15.166C168.857 15.166 168.111 14.8887 167.539 14.334C166.967 13.7793 166.664 13.0167 166.629 12.046H168.423C168.475 12.9647 168.917 13.424 169.749 13.424C170.599 13.424 171.049 12.9647 171.101 12.046H172.895C172.861 13.034 172.557 13.8053 171.985 14.36ZM165.173 31V17.298H167.617V23.07C167.617 24.6127 167.6 25.878 167.565 26.866L167.643 26.918C167.851 26.242 168.328 24.9507 169.073 23.044L171.725 17.298H174.299V31H171.855V25.748C171.855 24.3267 171.899 22.8533 171.985 21.328L171.907 21.302C171.838 21.614 171.63 22.264 171.283 23.252C170.937 24.2227 170.633 24.9767 170.373 25.514L167.747 31H165.173Z" fill="#A4E1D8"/>
<path d="M1.42926 27.6044C-0.476422 25.6987 -0.476421 22.609 1.42926 20.7033L22.1326 0L39.124 16.9915C39.6392 17.9195 39.5028 19.1122 38.7149 19.9002L35.6333 22.9818L30.1411 17.4896V11.5213H27.4362V14.7847L22.1326 9.48118L22.1318 9.48205L22.1308 9.48111L4.44286 27.1691C3.50793 28.104 3.49035 29.6089 4.39012 30.5653L1.42926 27.6044Z" fill="#FC9DA9"/>
<path d="M8.64484 25.3387L5.56247 28.4211C4.77539 29.2082 4.63847 30.3992 5.1517 31.3268L22.1326 48.3077L42.8359 27.6044C44.7416 25.6987 44.7416 22.609 42.8359 20.7033L39.8583 17.7257C40.7873 18.6804 40.7794 20.2073 39.8345 21.1522L22.1465 38.8401L8.64484 25.3387Z" fill="#FC9DA9"/>
<path d="M17.7409 19.762H21.1568V23.1779H17.7409V19.762Z" fill="#FC9DA9"/>
<path d="M23.1087 19.762H26.5246V23.1779H23.1087V19.762Z" fill="#FC9DA9"/>
<path d="M17.7409 25.1298H21.1568V28.5457H17.7409V25.1298Z" fill="#FC9DA9"/>
<path d="M23.1087 25.1298H26.5246V28.5457H23.1087V25.1298Z" fill="#FC9DA9"/>
</svg>
