<svg width="354" height="337" fill="none" xmlns="http://www.w3.org/2000/svg"><path d="M185.308 332.909c-90.593 2.017-110.853-54.137-165.157-123.873C-34.152 139.299 55.55 16.314 146.142 14.297c90.594-2.016 194.07 41.594 195.862 122.075 1.791 80.481-66.103 194.52-156.696 196.537z" fill="#FC9DA9"/><path fill-rule="evenodd" clip-rule="evenodd" d="M77.11 305.467c-37.291-28.435-50.783-57.05-54.97-89.987-2.11-16.598-1.86-34.351-.993-53.891.247-5.563.544-11.274.849-17.139v-.011c.763-14.66 1.576-30.282 1.778-46.937.538-44.517 38.08-75.247 86.083-87.696 47.923-12.428 104.801-6.138 141.807 22.08.47.358.939.717 1.407 1.078a223.675 223.675 0 0110.33 4.404 331.352 331.352 0 00-9.918-7.868C177.626-28.342 21.9 4.426 20.773 97.466c-.2 16.591-1.008 32.117-1.77 46.756v.001c-3.51 67.453-6.04 116.103 56.289 163.63 75.857 57.842 206.615 8.612 258.001-58.777 25.216-33.069 24.732-72.628 8.736-111.18.03 2.62-.014 5.26-.13 7.917 13.035 35.674 11.929 71.385-10.991 101.444-25.23 33.087-70.162 61.921-118.242 75.279-48.095 13.362-98.654 11.069-135.555-17.069z" fill="#99E2DB"/></svg>