<svg width="302" height="294" fill="none" xmlns="http://www.w3.org/2000/svg"><path d="M140.154 281.116c78.869 1.756 96.506-47.13 143.782-107.841 47.275-60.71-30.817-167.778-109.685-169.534C95.383 1.986 5.299 39.951 3.739 110.016c-1.56 70.065 57.547 169.345 136.415 171.1z" fill="#FC9DA9"/><path fill-rule="evenodd" clip-rule="evenodd" d="M156.468 284.789c-39.757-.699-63.301-13.574-82.679-34.139-9.779-10.379-18.532-22.758-27.777-36.71-2.63-3.969-5.302-8.069-8.046-12.28l-.003-.004-.001-.002c-6.862-10.529-14.18-21.757-22.434-33.386-21.955-30.927-13.178-72.275 11.92-106.36C52.513 27.87 93.036 2.321 132.349 3.013c39.745.699 81.631 18.958 113.438 46.108 31.846 27.184 53.089 62.83 52.468 97.978-.285 16.134-3.645 32.095-9.594 47.118h3.217c5.814-15.035 9.093-30.966 9.377-47.065C302.539 74.411 213.534 1.441 132.401.014 51.267-1.413-33.006 105.083 13.081 170.005c8.219 11.577 15.485 22.726 22.336 33.239 31.566 48.437 54.333 83.372 120.998 84.545 17.009.299 33.195-2.511 48.169-7.811a45.268 45.268 0 01-3.469-1.986c-13.956 4.637-28.946 7.073-44.647 6.797z" fill="#5E8D8C"/><mask id="a" maskUnits="userSpaceOnUse" x="3" y="12" width="296" height="279"><path d="M140.441 290.123c78.868 1.756 96.506-47.13 143.781-107.841 47.276-60.711-30.816-167.779-109.684-169.534C95.669 10.992 5.586 48.958 4.026 119.023c-1.56 70.065 57.547 169.344 136.415 171.1z" fill="#FC9DA9"/></mask><g clip-path="url(#clip0)" mask="url(#a)"><path d="M-58.17 135.71c-94.27 35.615-196.067 51.262-299.004 44.512l-1.877-.123.095-1.454 1.877.124c206.085 13.514 407.64-62.938 552.985-209.756l1.036 1.025C123.898 43.822 36.674 99.875-58.171 135.71z" fill="#274646"/><path d="M-7.96 112.092l29.151 31.657-5.913-42.638-23.238 10.981z" fill="#6FABA7"/><path d="M71.681 68.26l32.723 27.947-10.961-41.626L71.68 68.26zm71.44-51.563l36.885 22.152L162.325-.393l-19.204 17.09zM19.904 99.052l30.914 29.934-8.341-42.229-22.573 12.295zm76.335-46.64l34.692 25.456-14-40.704-20.692 15.248z" fill="#fff"/><path d="M45.967 84.097l32.5 28.203-10.632-41.711-21.868 13.508zm74.221-49.187l35.266 24.651-14.927-40.372-20.339 15.72z" fill="#C85664"/><path d="M434.693 135.71c94.268 35.615 196.066 51.262 299.003 44.512l1.877-.123-.094-1.454-1.878.124C527.516 192.283 325.96 115.831 180.615-30.987l-1.035 1.025C252.624 43.822 339.847 99.875 434.693 135.71z" fill="#274646"/><path d="M304.841 68.26l-32.723 27.947 10.96-41.626 21.763 13.68zm-71.44-51.563l-36.884 22.152 17.68-39.242 19.204 17.09zm46.882 35.715l-34.691 25.456 13.998-40.704 20.693 15.248z" fill="#fff"/><path d="M330.554 84.097l-32.5 28.203 10.634-41.711 21.866 13.508zM256.333 34.91l-35.265 24.65 14.926-40.372 20.339 15.72zm-130.866 84.005l-.003.092v.115l.003-.207z" fill="#C85664"/><path d="M125.468 116.582l-.004 2.426.003-.092-.003.206v-.114l-.008.273.002.038a2.672 2.672 0 01.671-1.476 1.8 1.8 0 01-.661-1.261zm10.661 22.56l-.003-.122-.001.099.004.023z" fill="#C85664"/><path d="M136.126 139.02l-.002-.081v.178h.001l.001-.097zm-10.657-22.438c.049.556.302.956.661 1.261.786-.89 2.096-1.376 3.173-1.822a40.618 40.618 0 015.951-1.928c.069-.017.023-1.362.024-1.487.001-.118-.054-1.476-.006-1.488a40.006 40.006 0 00-7.053 2.403c-.924.418-1.946.92-2.452 1.853-.514.946-.323 2.241-.324 3.269-.001.221.001.434.013.637l.008-.273.005-2.425zm10.679 19.783l-.006.042.005.082.001-.124zm-10.695-17.015l.004-.031-.002-.038-.002.069zm10.672 19.768v-.001.019-.018z" fill="#C85664"/><path d="M122.328 129.541c-.339-.928.226-.746.155.356a3.185 3.185 0 01-.155-.356zm15.642-6.829c-.073-2.512-3.872-2.935-5.732-3.224-1.372-.212-2.76-.373-4.099-.755-.695-.198-1.471-.434-2.009-.89-.352.399-.599.88-.671 1.476.047.735.244 1.342 1.032 1.772.965.526 2.108.771 3.178.97 2.17.404 4.481.491 6.518 1.417.359.163.711.367 1.011.626.136-.121.26-.255.367-.403.146-.202.193-.509.339-.688l-.004 2.141-.055-.177c-.062-.105-.097-.221-.163-.328a2.294 2.294 0 00-.355-.432l-.129-.112-.181.148c-.413.307-.906.493-1.398.633-2.346.662-4.855.764-7.269.989-1.165.109-2.34.216-3.492.424-.913.166-1.939.469-2.435 1.325-.534.921-.293 2.373-.29 3.371.001.916.113 1.722.715 2.457.732.894 1.887 1.291 2.973 1.554 1.297.314 2.611.557 3.907.879 1.347.336 2.693.696 4.016 1.119.521.167 1.05.38 1.48.693.471-.259.82-.657.918-1.29-.055-.637-.246-1.213-.86-1.676-.952-.717-2.309-.95-3.432-1.264a73.584 73.584 0 00-3.958-.991c-1.766-.392-4.127-.637-5.211-2.242.238-.253.534-.447.854-.589 1.06-.476 2.328-.538 3.467-.663 2.653-.289 5.338-.393 7.952-.965 1.056-.231 2.235-.591 2.771-1.622.212-.407.228-.824.235-1.272.015-.802.034-1.609.011-2.411h-.001z" fill="#A73D4B"/><path d="M135.224 137.697c.459.335.803.784.901 1.42l-.002-.178.003.082.022-2.532-.006-.082c-.098.633-.447 1.031-.918 1.29zm-9.177 7.385c-.057.32-.058 1.637.004 1.77l-.001-.163c0-.533-.01-1.07-.003-1.607z" fill="#C85664"/><path d="M126.119 145.152c-.029-.174-.053-.172-.072-.07-.007.537.004 1.074.004 1.607v.163c.015.031.033-.002.054-.129.017-.099.027-.199.044-.298.03-.17.07-.338.114-.504l-.014-.077c-.054-.23-.09-.46-.13-.692z" fill="#C85664"/><path d="M126.105 146.722c-.021.128-.04.161-.054.13.003.665.024 1.31.181 1.966-.103-.428.021-1.046.023-1.488.003-.438.09-.969.008-1.41a6.22 6.22 0 00-.114.504c-.017.099-.027.199-.044.298z" fill="#C85664"/><path d="M136.156 137.655c.002-.401.017-.794-.008-1.166l-.022 2.531.004.122-.005-.024v.019-.021c-.098-.636-.441-1.085-.901-1.42-.853.47-2.105.485-2.984.623-1.586.248-3.202.734-4.377 1.883-1.011.987-1.63 2.343-1.761 3.747-.035.374-.05.753-.055 1.132.019-.102.043-.103.072.07.04.233.075.463.13.692l.014.078c.093-.354.217-.7.371-1.029a5.758 5.758 0 011.907-2.293c.954-.664 2.088-1.016 3.219-1.227 1.133-.212 2.517-.107 3.519-.743 1.071-.681.872-1.865.877-2.974zm1.817-14.798l-.069.177v-.022c-.146.179-.193.486-.339.688a2.606 2.606 0 01-.367.404l-.181.148c-.413.307-.906.493-1.398.633-2.346.662-4.855.764-7.269.989-1.165.109-2.339.216-3.492.424-.913.166-1.939.468-2.435 1.325-.171.295-.262.647-.307 1.02.036.282-.007.452.342 1.248.06.118.151.236.223.342.238-.253.535-.446.854-.589 1.06-.476 2.329-.538 3.467-.663 2.653-.289 5.338-.393 7.952-.964 1.056-.232 2.235-.591 2.771-1.623.212-.407.228-.824.235-1.272.014-.752.03-1.51.013-2.265z" fill="#C85664"/><path d="M286.341 118.715l-.003.116-.001.143.004-.259z" fill="#FC9DA9"/><path d="M286.344 115.791l-.006 3.039.004-.115-.005.258.001-.143-.01.342.002.049a3.35 3.35 0 01.843-1.85c-.45-.382-.767-.884-.829-1.58z" fill="#FC9DA9"/><path d="M286.344 115.791c.062.696.379 1.198.829 1.58.985-1.117 2.627-1.726 3.977-2.284a50.911 50.911 0 017.46-2.417c.087-.021.028-1.709.03-1.864.001-.148-.068-1.85-.008-1.865-3.029.736-5.997 1.726-8.84 3.012-1.16.524-2.441 1.153-3.074 2.322-.645 1.187-.404 2.809-.406 4.099-.001.278.002.543.016.798l.01-.342.006-3.039z" fill="#A4E1D8"/><path d="M286.325 119.26l.004-.039-.002-.049-.002.088z" fill="#FC9DA9"/><path d="M282.407 132.036c-.425-1.164.284-.936.193.446a4.076 4.076 0 01-.193-.446zm19.608-8.562c-.091-3.149-4.853-3.679-7.185-4.04-1.72-.267-3.46-.47-5.139-.948-.871-.248-1.843-.545-2.518-1.116-.442.5-.75 1.104-.842 1.851.06.921.307 1.682 1.295 2.221 1.209.659 2.642.967 3.984 1.216 2.72.507 5.616.617 8.17 1.776.45.204.891.46 1.267.785.171-.152.325-.32.46-.506.184-.253.243-.638.425-.862l-.005 2.684-.068-.221c-.08-.133-.122-.278-.205-.412a2.967 2.967 0 00-.445-.542l-.162-.141-.228.187c-.517.385-1.135.619-1.752.794-2.94.829-6.085.957-9.111 1.239-1.462.136-2.933.269-4.378.531-1.145.208-2.43.587-3.052 1.662-.669 1.153-.367 2.975-.365 4.224.003 1.149.142 2.16.899 3.082.918 1.12 2.365 1.616 3.726 1.946 1.626.395 3.273.699 4.898 1.104 1.688.42 3.375.872 5.033 1.402.654.208 1.318.474 1.857.868.59-.324 1.027-.823 1.149-1.617-.069-.798-.308-1.521-1.078-2.101-1.192-.898-2.893-1.19-4.302-1.584a92.873 92.873 0 00-4.96-1.243c-2.215-.49-5.175-.798-6.535-2.81a3.354 3.354 0 011.071-.739c1.329-.596 2.918-.675 4.347-.83 3.325-.364 6.691-.493 9.967-1.21 1.324-.289 2.802-.741 3.474-2.034.266-.511.285-1.032.296-1.594.017-1.006.041-2.017.012-3.022z" fill="#6FABA7"/><path d="M287.069 151.516c-.072.401-.072 2.053.006 2.219l-.001-.206c0-.667-.014-1.34-.005-2.013z" fill="#FC9DA9"/><path d="M287.159 151.603c-.037-.217-.066-.215-.089-.087-.01.673.004 1.346.004 2.013l.001.206c.018.039.04-.003.068-.162.02-.125.033-.25.054-.374.037-.213.088-.423.144-.632l-.018-.096c-.069-.288-.114-.577-.164-.868z" fill="#FC9DA9"/><path d="M287.142 153.573c-.027.16-.05.201-.067.163.002.834.03 1.644.225 2.464-.128-.536.027-1.31.029-1.864.004-.55.114-1.216.011-1.768a7.576 7.576 0 00-.144.631c-.021.125-.034.25-.054.374z" fill="#FC9DA9"/><path d="M299.74 142.207c.003-.504.022-.996-.009-1.463l-.028 3.174.005.153-.006-.031v.024-.025c-.122-.797-.554-1.361-1.128-1.78-1.07.588-2.64.608-3.742.78-1.988.312-4.013.92-5.486 2.36-1.268 1.237-2.044 2.936-2.209 4.696-.044.471-.061.946-.068 1.421.023-.128.053-.13.09.087.05.291.095.579.163.867l.018.097c.117-.442.271-.875.465-1.29a7.235 7.235 0 012.39-2.873c1.196-.832 2.618-1.273 4.037-1.538 1.419-.265 3.154-.134 4.409-.931 1.343-.854 1.093-2.337 1.099-3.728zm2.279-18.549l-.087.22v-.026c-.182.223-.241.608-.425.862a3.201 3.201 0 01-.46.506l-.228.186c-.517.385-1.135.619-1.752.794-2.94.83-6.085.958-9.111 1.239-1.462.136-2.933.269-4.378.532-1.145.208-2.43.587-3.052 1.661-.216.37-.329.811-.386 1.278.046.355-.009.568.43 1.565.075.148.189.296.279.429.298-.316.67-.559 1.071-.739 1.329-.597 2.918-.675 4.346-.83 3.325-.364 6.691-.493 9.968-1.21 1.323-.29 2.801-.741 3.474-2.035.265-.51.285-1.031.295-1.593.017-.944.037-1.894.016-2.839z" fill="#A4E1D8"/><path d="M70.9 214.993l-.001.091-.001.112.003-.203z" fill="#6FABA7"/><path d="M70.903 212.7l-.005 2.384.003-.091-.004.203v-.112l-.007.267.003.039a2.62 2.62 0 01.66-1.451 1.769 1.769 0 01-.65-1.239zm10.481 22.181l-.002-.12-.001.096.003.024zm-.002-.12l-.003-.08.001.175v.001l.002-.096z" fill="#6FABA7"/><path d="M70.903 212.7c.048.546.298.94.65 1.239.773-.875 2.061-1.353 3.12-1.791a39.922 39.922 0 015.852-1.896c.067-.016.022-1.34.023-1.462 0-.116-.053-1.452-.006-1.462a39.192 39.192 0 00-6.934 2.362c-.91.411-1.914.903-2.411 1.821-.506.931-.318 2.204-.32 3.214 0 .218.001.427.014.626l.008-.267.004-2.384zm10.501 19.452l-.007.039.006.081v-.12zm-10.516-16.731l.004-.031-.002-.039-.002.07zm10.492 19.436v-.001.02-.019z" fill="#6FABA7"/><path d="M67.814 225.442c-.333-.913.223-.735.153.35a3.19 3.19 0 01-.153-.35zm15.38-6.715c-.072-2.47-3.807-2.886-5.635-3.169-1.35-.21-2.714-.368-4.03-.743-.684-.196-1.447-.427-1.976-.876a2.62 2.62 0 00-.66 1.451c.046.723.24 1.32 1.015 1.742.949.518 2.072.76 3.124.955 2.134.397 4.406.483 6.41 1.392.353.161.698.361.993.616a2.42 2.42 0 00.36-.396c.145-.199.19-.501.335-.677l-.005 2.106-.054-.174c-.061-.104-.094-.218-.16-.323a2.249 2.249 0 00-.349-.425l-.127-.111-.178.146c-.407.302-.891.486-1.374.623-2.307.651-4.774.752-7.147.973-1.146.106-2.301.211-3.434.416-.898.163-1.906.461-2.394 1.303-.525.906-.287 2.333-.285 3.314.001.901.11 1.694.703 2.417.72.878 1.855 1.268 2.923 1.527 1.275.309 2.567.548 3.842.865a62.61 62.61 0 013.948 1.1c.512.164 1.033.373 1.457.682.463-.255.805-.647.902-1.27-.055-.625-.242-1.192-.846-1.648-.936-.703-2.27-.933-3.375-1.242a73.236 73.236 0 00-3.891-.975c-1.736-.384-4.058-.626-5.124-2.204.234-.248.526-.438.84-.58 1.042-.467 2.29-.529 3.408-.651 2.609-.285 5.249-.386 7.82-.948 1.037-.228 2.196-.582 2.724-1.596.208-.4.223-.809.231-1.25.014-.789.034-1.583.01-2.37z" fill="#5E8D8C"/><path d="M80.496 233.461c.45.329.789.772.884 1.395v-.174l.002.08.022-2.49-.006-.081c-.097.623-.44 1.015-.902 1.27zm-9.024 7.26c-.056.315-.057 1.61.004 1.741v-.162c0-.522-.011-1.05-.004-1.579z" fill="#6FABA7"/><path d="M71.543 240.79c-.03-.17-.053-.168-.071-.069-.007.529.003 1.057.003 1.579v.162c.015.031.032-.003.053-.127.017-.097.027-.197.043-.293.03-.168.07-.333.113-.497l-.014-.074c-.054-.227-.089-.453-.128-.681z" fill="#6FABA7"/><path d="M71.529 242.335c-.022.124-.04.158-.053.127.002.654.023 1.29.176 1.934-.1-.421.021-1.028.024-1.463.002-.431.088-.953.008-1.387a6.464 6.464 0 00-.112.496c-.017.097-.027.197-.043.293zm9.883-8.916c0-.395.016-.781-.008-1.147l-.022 2.489.003.12-.004-.024v.019-.02c-.096-.623-.435-1.067-.885-1.395-.84.461-2.07.476-2.935.612-1.559.243-3.148.721-4.303 1.85-.995.971-1.604 2.304-1.733 3.684-.034.369-.048.741-.053 1.114.018-.099.042-.101.07.069.04.228.075.454.129.681l.013.074a6.07 6.07 0 01.365-1.011 5.678 5.678 0 011.875-2.254c.938-.652 2.052-.999 3.166-1.206 1.113-.207 2.475-.105 3.46-.73 1.052-.67.856-1.834.862-2.925zm1.785-14.549l-.067.172v-.02c-.144.176-.19.478-.334.677a2.5 2.5 0 01-.36.396l-.179.146c-.406.302-.89.485-1.374.622-2.306.652-4.773.752-7.146.973-1.146.107-2.302.212-3.434.417-.898.163-1.906.461-2.394 1.303-.17.29-.259.635-.303 1.002.037.279-.007.445.337 1.228.06.115.148.231.22.336a2.61 2.61 0 01.84-.58c1.042-.468 2.29-.529 3.407-.651 2.61-.285 5.25-.386 7.82-.949 1.038-.227 2.197-.582 2.724-1.595.209-.401.224-.809.232-1.251.013-.741.029-1.485.012-2.226zm111.27-171.912l-.003.091v.113l.003-.204z" fill="#6FABA7"/><path d="M194.469 44.664l-.005 2.385.003-.09-.003.203v-.113a23.19 23.19 0 00-.007.268l.001.038a2.627 2.627 0 01.661-1.45 1.764 1.764 0 01-.65-1.24zm10.482 22.182l-.004-.12v.097l.004.023zm-.004-.119l-.002-.08.001.174v.001l.001-.095z" fill="#6FABA7"/><path d="M194.47 44.664c.048.547.297.941.649 1.24.773-.876 2.061-1.354 3.12-1.792a39.928 39.928 0 015.852-1.895c.068-.017.022-1.34.023-1.462.001-.116-.052-1.451-.006-1.463a39.328 39.328 0 00-6.934 2.362c-.909.41-1.914.904-2.412 1.822-.505.93-.316 2.203-.318 3.214-.001.218.001.426.013.626l.007-.267.006-2.385zm10.501 19.452l-.008.04.007.081.001-.12zm-10.516-16.73l.002-.03v-.04l-.002.07z" fill="#6FABA7"/><path d="M191.381 57.407c-.334-.913.223-.734.152.35a3.208 3.208 0 01-.152-.35zm15.38-6.716c-.071-2.47-3.807-2.884-5.635-3.169-1.349-.21-2.714-.368-4.032-.742-.683-.195-1.445-.428-1.975-.876a2.635 2.635 0 00-.661 1.452c.049.722.241 1.319 1.017 1.741.949.517 2.071.76 3.124.955 2.134.397 4.405.482 6.409 1.393.354.16.699.36.994.616.134-.12.254-.25.36-.397.145-.199.191-.501.334-.677l-.004 2.106-.054-.174c-.06-.103-.094-.217-.16-.323a2.25 2.25 0 00-.348-.424l-.128-.111-.178.145c-.406.302-.891.486-1.375.623-2.306.65-4.772.751-7.146.972-1.147.107-2.301.212-3.434.418-.898.163-1.906.46-2.395 1.302-.524.904-.287 2.333-.285 3.314.002.901.111 1.693.704 2.416.72.88 1.856 1.269 2.923 1.528 1.275.308 2.567.548 3.842.865 1.324.33 2.647.685 3.947 1.1.513.163 1.034.372 1.457.681.462-.255.805-.646.901-1.268-.054-.627-.242-1.193-.845-1.648-.935-.705-2.269-.934-3.374-1.243a73.468 73.468 0 00-3.892-.975c-1.736-.385-4.058-.626-5.124-2.205.234-.248.526-.437.839-.578 1.044-.469 2.291-.53 3.409-.652 2.608-.285 5.249-.386 7.82-.95 1.037-.226 2.197-.58 2.724-1.595.209-.4.224-.809.232-1.25.014-.788.032-1.581.009-2.37z" fill="#5E8D8C"/><path d="M204.062 65.425c.451.329.789.772.884 1.396l-.001-.175.002.081.022-2.49-.006-.08c-.097.623-.439 1.013-.901 1.268zm-9.024 7.261c-.056.315-.057 1.61.004 1.74v-.161c0-.523-.011-1.05-.004-1.579z" fill="#6FABA7"/><path d="M195.11 72.755c-.03-.17-.054-.169-.071-.069-.008.529.004 1.057.004 1.58v.161c.014.03.032-.002.052-.127.018-.097.027-.196.044-.293.029-.168.069-.332.112-.496l-.013-.075c-.054-.226-.089-.452-.127-.68h-.001z" fill="#6FABA7"/><path d="M195.095 74.3c-.021.125-.039.157-.053.127.002.654.024 1.289.177 1.933-.101-.42.021-1.028.024-1.463.002-.43.088-.953.007-1.386a5.929 5.929 0 00-.112.495c-.018.097-.026.195-.044.293h.001zm9.882-8.916c.002-.395.018-.78-.008-1.146l-.022 2.49.004.118-.004-.023v.018-.02c-.096-.624-.434-1.067-.885-1.396-.839.462-2.071.477-2.934.612-1.559.244-3.148.722-4.303 1.85-.996.971-1.604 2.304-1.733 3.685a13.31 13.31 0 00-.053 1.114c.018-.1.041-.101.071.069.039.228.074.454.127.68l.014.076a5.85 5.85 0 01.365-1.012 5.67 5.67 0 011.875-2.254c.939-.652 2.052-.998 3.166-1.206 1.113-.207 2.474-.105 3.458-.73 1.054-.67.858-1.834.863-2.925h-.001zm1.787-14.549l-.069.172v-.02c-.143.175-.188.478-.333.677a2.501 2.501 0 01-.361.396l-.177.146c-.407.301-.892.486-1.375.623-2.307.65-4.773.75-7.147.972-1.146.107-2.301.211-3.434.417-.898.163-1.906.46-2.394 1.302-.168.291-.258.637-.303 1.003.037.278-.006.445.338 1.227.058.116.148.232.218.336.234-.248.527-.437.84-.578 1.043-.469 2.29-.53 3.409-.652 2.608-.285 5.248-.386 7.819-.95 1.037-.226 2.197-.58 2.725-1.595.208-.4.223-.809.231-1.25.013-.74.029-1.485.012-2.226h.001z" fill="#6FABA7"/><path d="M118.99 188.51l8.918-4.226 1.598 4.226-8.635 3.928-1.881-3.928zm125.977-5.766l6.25 7.64-3.712 2.572-5.893-7.437 3.355-2.775z" fill="#C85664"/><path d="M232.873 149.972l-9.031-3.979 2.146-3.976 8.621 3.961-1.736 3.994z" fill="#6FABA7"/><path d="M106.356 262.765l.606-9.854 4.47.638-.73 9.464-4.346-.248zM256.331 88.851l6.79-7.165 3.016 3.36-6.632 6.788-3.174-2.983zM71.332 106.427l9.797-1.177.177 4.516-9.435.984-.54-4.323zm113.016 16.226l6.788-7.166 3.018 3.362-6.634 6.786-3.172-2.982z" fill="#A4E1D8"/><path d="M107.349 127.734l-6.937-7.023 3.457-2.908 6.562 6.855-3.082 3.076z" fill="#C85664"/><path d="M85.701 38.845l-7.439 6.488-2.684-3.634 7.248-6.124 2.875 3.27zM46.29 174.526l7.196 6.756-3.344 3.037-6.816-6.603 2.964-3.19z" fill="#A4E1D8"/><path d="M155.534 69.768l9.67-1.969.54 4.486-9.323 1.748-.887-4.265z" fill="#6FABA7"/></g><defs><clipPath id="clip0"><path fill="#fff" transform="translate(-181.427 -20.987)" d="M0 0h747v284H0z"/></clipPath></defs></svg>