<svg width="302" height="304" fill="none" xmlns="http://www.w3.org/2000/svg"><path d="M140.155 289.899c78.869 1.755 96.506-47.13 143.782-107.841 47.275-60.711-30.817-167.779-109.685-169.534C95.384 10.768 5.3 48.734 3.74 118.799c-1.56 70.064 57.547 169.344 136.415 171.1z" fill="#A4E1D8"/><path fill-rule="evenodd" clip-rule="evenodd" d="M16.354 195.942c-9.875-38.577-3.708-64.734 10.979-88.91 7.412-12.2 17.025-23.942 28.025-36.577 3.13-3.595 6.374-7.265 9.707-11.035 8.332-9.425 17.217-19.474 26.239-30.536C115.296-.532 157.49-3.044 197.013 12.134c39.466 15.156 74.853 47.496 84.618 85.644 8.475 33.107 4.89 71.176-7.516 105.284h3.188c12.281-34.325 15.796-72.58 7.234-106.03-20.151-78.72-145.19-131.796-195.557-70.044-8.982 11.013-17.803 20.99-26.121 30.4-38.326 43.351-65.968 74.617-49.411 139.3 20.15 78.721 103.55 120.574 174.025 102.485 7.347-1.885 14.437-4.719 21.219-8.372a45.623 45.623 0 01-3.495-1.558c-5.946 3.023-12.114 5.394-18.468 7.024-69 17.71-150.668-23.336-170.375-100.325z" fill="#5E8D8C"/></svg>