<svg width="295" height="292" fill="none" xmlns="http://www.w3.org/2000/svg"><path d="M262.914 226.642c41.52-67.077 8.338-107.075-20-178.613C214.575-23.51 82.692-10.523 41.172 56.554c-41.52 67.077-54.499 163.969 5.09 200.855 59.59 36.885 175.131 36.31 216.652-30.767z" fill="#FC9DA9"/><path fill-rule="evenodd" clip-rule="evenodd" d="M281.068 195.211c1.2-2.988 2.349-6.112 3.447-9.38 25.289-75.217-20.929-154.04-88.448-176.746C162.748-2.12 122.351 7.368 86.82 29.52 51.333 51.643 21.278 86.06 8.61 123.739c-12.53 37.269-.41 83.615 24.469 117.786 24.142 33.157 59.412 53.765 94.431 44.468h10.216c-1.963.608-3.941 1.23-5.934 1.87-75.808 24.332-151.885-88.165-126.026-165.08C31.626 45.868 128.065-16.948 197.024 6.242c68.958 23.19 116.195 103.63 90.335 180.545a179.74 179.74 0 01-3.063 8.424h-3.228z" fill="#5E8D8C"/></svg>