<svg width="45" height="49" viewBox="0 0 45 49" fill="none" xmlns="http://www.w3.org/2000/svg">
<path d="M1.42926 27.6044C-0.476422 25.6987 -0.476421 22.609 1.42926 20.7033L22.1326 0L39.124 16.9915C39.6392 17.9195 39.5028 19.1122 38.7149 19.9002L35.6333 22.9818L30.1411 17.4896V11.5213H27.4362V14.7847L22.1326 9.48118L22.1318 9.48205L22.1308 9.48111L4.44286 27.1691C3.50793 28.104 3.49035 29.6089 4.39012 30.5653L1.42926 27.6044Z" fill="#FC9DA9"/>
<path d="M8.64484 25.3387L5.56247 28.4211C4.77539 29.2082 4.63847 30.3992 5.1517 31.3268L22.1326 48.3077L42.8359 27.6044C44.7416 25.6987 44.7416 22.609 42.8359 20.7033L39.8583 17.7257C40.7873 18.6804 40.7794 20.2073 39.8345 21.1522L22.1465 38.8401L8.64484 25.3387Z" fill="#FC9DA9"/>
<path d="M17.7409 19.762H21.1568V23.1779H17.7409V19.762Z" fill="#FC9DA9"/>
<path d="M23.1087 19.762H26.5246V23.1779H23.1087V19.762Z" fill="#FC9DA9"/>
<path d="M17.7409 25.1298H21.1568V28.5457H17.7409V25.1298Z" fill="#FC9DA9"/>
<path d="M23.1087 25.1298H26.5246V28.5457H23.1087V25.1298Z" fill="#FC9DA9"/>
</svg>
