<svg width="1920" height="837" fill="none" xmlns="http://www.w3.org/2000/svg"><path d="M0 36.24h131.5C162 248.459 431 570.08 924 717.468c493 147.389 996-261.348 996-261.348V837H0V36.24z" fill="#fff"/><path fill-rule="evenodd" clip-rule="evenodd" d="M107.005-11.877h24.977c30.5 212.22 299.5 533.841 792.5 681.229 116.798 34.918 234.158 38.622 345.258 23.943-55.78 8.698-113.61 15.593-173.26 20.628-471.097 39.768-971.094-289.907-989.475-725.8zM1358.1 677.663c238.83-47.458 433.82-130.281 562.38-243.448v-26.212s-245.91 199.83-562.38 269.66z" fill="#274646"/><path fill-rule="evenodd" clip-rule="evenodd" d="M107.005-11.877h24.977c30.5 212.22 299.5 533.841 792.5 681.229 116.798 34.918 234.158 38.622 345.258 23.943-55.78 8.698-113.61 15.593-173.26 20.628-471.097 39.768-971.094-289.907-989.475-725.8zM1358.1 677.663c238.83-47.458 433.82-130.281 562.38-243.448v-26.212s-245.91 199.83-562.38 269.66z" fill="url(#paint0_linear)"/><path d="M2004.48-51.89c0 351.438-352.56 665.753-845.2 732.418-523.137 70.792-966.297-340.957-966.297-788.131 0-447.154 401.23-809.897 896.497-809.897 495.18 0 915 418.371 915 865.61z" stroke="#C85664" stroke-width="3"/><defs><linearGradient id="paint0_linear" x1="1013.74" y1="-11.877" x2="1013.74" y2="717.176" gradientUnits="userSpaceOnUse"><stop stop-opacity=".18"/><stop offset="1" stop-color="#274646"/></linearGradient></defs></svg>