<svg width="177" height="49" fill="none" xmlns="http://www.w3.org/2000/svg"><path d="M65.54 31l-.858-3.666h-4.81L59.041 31h-2.756l4.576-18.2h2.834L68.27 31h-2.73zm-5.096-6.11h3.692l-1.143-4.888a53.315 53.315 0 01-.677-3.9h-.078c-.225 1.647-.45 2.947-.675 3.9l-1.119 4.888zm18.918-7.592V31H76.84V19.612h-3.822V31h-2.522V17.298h8.866zm7.879-.338c1.456 0 2.556.425 3.302 1.274.762.85 1.144 2.071 1.144 3.666V31h-2.054l-.182-1.274c-.642 1.075-1.656 1.612-3.042 1.612-1.266 0-2.288-.381-3.068-1.144-.763-.78-1.144-1.811-1.144-3.094 0-1.37.442-2.418 1.326-3.146.884-.728 2.097-1.092 3.64-1.092h2.002V21.9c0-1.681-.66-2.522-1.976-2.522-.572 0-1.05.156-1.43.468-.364.312-.581.763-.65 1.352h-2.522c.069-1.317.52-2.349 1.352-3.094.832-.763 1.932-1.144 3.302-1.144zm1.924 9.958v-1.872h-2.002c-1.612 0-2.418.685-2.418 2.054 0 .624.19 1.118.572 1.482.38.347.918.52 1.612.52.676 0 1.213-.2 1.612-.598.416-.399.624-.927.624-1.586zm11.156-9.932c1.318 0 2.375.477 3.172 1.43.798.936 1.196 2.227 1.196 3.874v3.77c0 1.647-.398 2.938-1.196 3.874-.78.919-1.837 1.378-3.172 1.378-1.057 0-1.932-.364-2.626-1.092v5.46h-2.47V17.272h1.82l.182 1.274c.347-.45.798-.823 1.352-1.118a3.766 3.766 0 011.742-.442zm1.794 9.074v-3.77c0-1.959-.736-2.938-2.21-2.938-.676 0-1.213.251-1.612.754-.398.485-.598 1.205-.598 2.158v3.796c0 .901.19 1.612.572 2.132.399.503.945.754 1.638.754 1.474 0 2.21-.962 2.21-2.886zm12.468-8.762v2.366h-3.146V31h-2.496V19.664h-3.12v-2.366h8.762zm7.344 14.014c-1.629 0-2.921-.494-3.874-1.482-.936-.988-1.404-2.383-1.404-4.186v-7.488c0-1.82.468-3.224 1.404-4.212.936-.988 2.219-1.482 3.848-1.482 1.664 0 2.964.485 3.9 1.456.936.953 1.439 2.331 1.508 4.134h-2.6c-.156-2.063-1.101-3.094-2.834-3.094-.797 0-1.421.269-1.872.806-.451.537-.676 1.335-.676 2.392v7.488c0 1.057.225 1.855.676 2.392.468.52 1.109.78 1.924.78 1.751 0 2.713-1.023 2.886-3.068h2.6c-.087 1.785-.607 3.163-1.56 4.134-.936.953-2.245 1.43-3.926 1.43zm15.761-14.014v2.366h-3.146V31h-2.496V19.664h-3.12v-2.366h8.762zm7.369-.312c1.318 0 2.375.477 3.172 1.43.798.936 1.196 2.227 1.196 3.874v3.77c0 1.647-.398 2.938-1.196 3.874-.78.919-1.837 1.378-3.172 1.378-1.057 0-1.932-.364-2.626-1.092v5.46h-2.47V17.272h1.82l.182 1.274c.347-.45.798-.823 1.352-1.118a3.767 3.767 0 011.742-.442zm1.794 9.074v-3.77c0-1.959-.736-2.938-2.21-2.938-.676 0-1.213.251-1.612.754-.398.485-.598 1.205-.598 2.158v3.796c0 .901.191 1.612.572 2.132.399.503.945.754 1.638.754 1.474 0 2.21-.962 2.21-2.886zm10.265 5.252c-1.49 0-2.669-.45-3.536-1.352-.849-.901-1.274-2.184-1.274-3.848V22.16c0-1.664.425-2.947 1.274-3.848.867-.901 2.046-1.352 3.536-1.352 1.508 0 2.687.45 3.536 1.352.867.901 1.3 2.184 1.3 3.848v3.952c0 1.664-.433 2.947-1.3 3.848-.849.901-2.028 1.352-3.536 1.352zm0-2.444c1.526 0 2.288-.919 2.288-2.756V22.16c0-1.837-.762-2.756-2.288-2.756-1.508 0-2.262.919-2.262 2.756v3.952c0 1.837.754 2.756 2.262 2.756zm14.869-14.508c-.554.537-1.291.806-2.21.806-.918 0-1.664-.277-2.236-.832-.572-.555-.875-1.317-.91-2.288h1.794c.052.919.494 1.378 1.326 1.378.85 0 1.3-.46 1.352-1.378h1.794c-.034.988-.338 1.76-.91 2.314zM165.173 31V17.298h2.444v5.772c0 1.543-.017 2.808-.052 3.796l.078.052c.208-.676.685-1.967 1.43-3.874l2.652-5.746h2.574V31h-2.444v-5.252c0-1.421.044-2.895.13-4.42l-.078-.026c-.069.312-.277.962-.624 1.95-.346.97-.65 1.725-.91 2.262L167.747 31h-2.574z" fill="#A4E1D8"/><path d="M1.43 27.604a4.88 4.88 0 010-6.9L22.132 0l16.991 16.991a2.442 2.442 0 01-.41 2.91l-3.08 3.08-5.493-5.491v-5.97h-2.705v3.264L22.133 9.48l-.001.001h-.001L4.443 27.168a2.44 2.44 0 00-.053 3.396l-2.96-2.96z" fill="#FC9DA9"/><path d="M8.645 25.339L5.562 28.42a2.44 2.44 0 00-.41 2.906l16.98 16.98 20.704-20.703a4.88 4.88 0 000-6.9l-2.978-2.978a2.44 2.44 0 01-.023 3.426L22.145 38.84 8.646 25.34z" fill="#FC9DA9"/><path d="M17.74 19.762h3.417v3.416H17.74v-3.416zm5.369 0h3.416v3.416h-3.416v-3.416zM17.74 25.13h3.417v3.416H17.74V25.13zm5.369 0h3.416v3.416h-3.416V25.13z" fill="#FC9DA9"/></svg>