<svg xmlns="http://www.w3.org/2000/svg" shape-rendering="geometricPrecision" text-rendering="geometricPrecision" image-rendering="optimizeQuality" fill-rule="evenodd" clip-rule="evenodd" viewBox="0 0 4588.26 4546.32"><path fill="none" stroke="#99E2DB" stroke-width="79.38" stroke-miterlimit="22.926" d="M813.68 4165.28C303.8 3776.51 119.24 3385.16 61.99 2934.71c-28.85-226.94-25.44-469.64-13.59-736.66 3.38-76.09 7.44-154.19 11.62-234.39 10.42-200.34 21.52-413.76 24.28-641.34C91.67 713.11 605.41 292.85 1261.64 122.67 1916.79-47.23 2694.5 38.71 3200.6 424.63c514.4 392.23 957.5 907.07 1184.99 1435.5 227.2 527.74 237.86 1063.94-101.87 1509.45-344.96 452.41-959.22 846.58-1616.47 1029.17-657.46 182.67-1348.85 151.4-1853.57-233.47z"/></svg>